<!DOCTYPE svg PUBLIC "-//W3C//DTD SVG 20010904//EN" "http://www.w3.org/TR/2001/REC-SVG-20010904/DTD/svg10.dtd">
<svg version="1.0" xmlns="http://www.w3.org/2000/svg" width="650px" height="650px" viewBox="0 0 6500 6500" preserveAspectRatio="xMidYMid meet">
<g id="layer101" fill="#e67e22" stroke="none">
 <path d="M766 5801 c-16 -11 -38 -34 -50 -53 l-21 -33 -3 -2430 c-2 -1966 0 -2439 11 -2475 10 -34 23 -52 56 -75 l43 -30 2426 -3 c1805 -2 2438 0 2469 9 23 6 57 25 75 41 l33 29 3 2467 c2 2374 1 2469 -16 2501 -10 19 -34 43 -53 53 -32 17 -130 18 -2489 18 -2399 0 -2456 -1 -2484 -19z m2602 -793 c46 -67 116 -126 259 -221 207 -136 385 -294 460 -409 25 -37 29 -40 64 -34 51 8 232 -11 325 -34 250 -63 427 -232 490 -465 22 -83 30 -286 14 -383 -6 -42 -27 -124 -46 -182 l-33 -105 -69 -56 c-138 -113 -226 -267 -268 -469 -124 -599 -471 -973 -1002 -1079 -274 -55 -569 -27 -811 77 -389 168 -631 491 -735 983 -26 122 -52 197 -93 269 -44 76 -122 168 -183 216 -54 42 -61 53 -89 129 -81 223 -83 506 -5 699 70 174 241 310 458 366 92 23 273 42 325 34 35 -6 39 -3 66 38 77 117 280 293 521 451 97 63 185 146 207 195 9 19 18 22 63 22 51 0 54 -2 82 -42z"/>
 <path d="M2996 4585 c-77 -32 -187 -105 -260 -174 -188 -178 -298 -501 -322 -948 l-6 -131 -42 -11 c-50 -14 -67 -26 -95 -71 -19 -32 -21 -49 -21 -205 l0 -169 29 -31 c25 -25 33 -48 51 -135 103 -512 379 -878 735 -974 86 -24 267 -32 362 -16 329 53 582 292 737 698 36 94 96 318 96 358 0 13 16 41 35 63 l35 38 0 156 c0 86 -5 168 -11 184 -17 45 -70 93 -116 105 l-43 10 0 114 c0 283 -76 597 -192 797 -101 175 -361 366 -499 367 -54 0 -92 -24 -107 -69 -9 -26 -7 -31 20 -51 94 -70 92 -202 -5 -274 -40 -30 -144 -30 -184 0 -42 32 -65 78 -65 133 0 57 19 99 64 136 l32 27 -19 36 c-36 67 -107 79 -209 37z m-106 -395 c103 -17 187 -47 292 -106 53 -30 101 -54 108 -54 6 0 59 27 118 60 118 66 218 97 343 107 l76 6 6 -33 c8 -39 5 -46 -30 -54 -162 -39 -360 -173 -417 -284 -21 -41 -21 -42 18 -42 72 0 71 10 87 -545 6 -214 13 -393 15 -396 2 -4 24 -12 48 -18 43 -11 45 -10 79 24 44 44 91 47 136 9 17 -14 31 -32 31 -40 0 -18 31 -18 103 1 82 21 104 19 124 -11 26 -40 3 -74 -67 -98 -70 -24 -274 -33 -363 -17 -85 16 -183 49 -197 67 -11 12 -38 594 -40 842 l0 62 -108 0 c-121 0 -152 12 -152 57 0 40 27 63 72 63 l39 0 -18 33 c-30 54 -144 161 -218 204 -38 23 -106 54 -150 69 -44 15 -82 29 -84 30 -2 2 0 19 3 39 6 33 9 35 44 35 20 0 66 -5 102 -10z m57 -1335 l35 -35 73 21 c86 25 122 21 131 -18 4 -14 3 -33 -3 -42 -42 -70 -354 -115 -528 -76 -106 23 -143 67 -98 117 20 22 52 23 117 3 63 -19 106 -19 106 -1 0 8 14 26 31 40 45 38 92 35 136 -9z m93 -620 l0 -85 -85 0 -85 0 0 85 0 85 85 0 85 0 0 -85z m340 0 l0 -85 -90 0 -90 0 0 85 0 85 90 0 90 0 0 -85z m330 0 l0 -85 -89 0 -89 0 4 83 c1 45 3 83 3 85 1 1 39 2 86 2 l85 0 0 -85z"/>
 </g>

</svg>